<svg width="24" height="24" viewBox="0 0 24 24" fill="none" xmlns="http://www.w3.org/2000/svg">
<path d="M12.25 17C12.6642 17 13 17.3358 13 17.75C13 18.1642 12.6642 18.5 12.25 18.5H4.75C4.33579 18.5 4 18.1642 4 17.75C4 17.3358 4.33579 17 4.75 17H12.25ZM19.25 11C19.6642 11 20 11.3358 20 11.75C20 12.1642 19.6642 12.5 19.25 12.5H4.75C4.33579 12.5 4 12.1642 4 11.75C4 11.3358 4.33579 11 4.75 11H19.25ZM19.25 5C19.6642 5 20 5.33579 20 5.75C20 6.16421 19.6642 6.5 19.25 6.5H11.75C11.3358 6.5 11 6.16421 11 5.75C11 5.33579 11.3358 5 11.75 5H19.25Z" fill="#DBE3FF"/>
</svg>
